<?xml version="1.0" encoding="UTF-8" standalone="no"?>
<svg
   width="16"
   height="16"
   version="1.1"
   id="svg1"
   xmlns="http://www.w3.org/2000/svg"
   xmlns:svg="http://www.w3.org/2000/svg">
  <defs
     id="defs1" />
  <path
     fill="#bbc9f8"
     d="M 5.334833,0.97411758 A 0.98920536,1.0036936 0 0 0 4.3456276,1.9778112 V 4.988892 A 0.98920536,1.0036936 0 0 0 5.334833,5.9925857 H 6.3240384 V 6.9862422 A 0.98920536,1.0036936 0 0 0 6.0114495,7.0484711 L 3.9825893,7.7349977 3.3059727,5.6764219 A 0.98927528,1.0037645 0 0 0 1.4284609,6.3097528 L 2.4176664,9.3208336 A 0.98920536,1.0036936 0 0 0 3.6690111,9.9561717 L 5.334833,9.3941032 v 0.6122528 c 0,0.04115 0.018795,0.07628 0.02374,0.116428 l -4.52957092,3.063272 a 0.98932922,1.0038193 0 1 0 1.09801782,1.670148 l 5.0014224,-3.382447 1.478862,2.997029 a 0.98920536,1.0036936 0 0 0 1.196938,0.503854 L 12.571859,13.970945 A 0.98920536,1.0036936 0 1 0 11.946682,12.066939 L 9.7921913,12.794618 8.8277172,10.836411 A 0.97041048,0.98462342 0 0 0 9.2916551,10.006356 V 9.0036664 h 1.3680709 l 0.714205,1.4533486 A 0.98983979,1.0043373 0 1 0 13.14461,9.558709 L 12.155403,7.5513218 A 0.98920536,1.0036936 0 0 0 11.270064,6.9962792 H 8.3024491 V 5.9925857 h 0.989206 A 0.98920536,1.0036936 0 0 0 10.28086,4.988892 V 1.9778112 A 0.98920536,1.0036936 0 0 0 9.2916551,0.97411758 Z m 0,2.00738722 H 6.3240384 V 4.988892 H 5.334833 Z"
     id="path1"
     style="fill:#bbc9f8;fill-opacity:1;stroke-width:0.996423" />
  <path
     fill="#fc7f7f"
     d="M 10.664988,0.97411758 A 0.98919406,1.0036936 0 0 1 11.654181,1.9778112 V 4.9888919 A 0.98919406,1.0036936 0 0 1 10.664988,5.9925856 H 9.6757933 v 0.9936565 a 0.98919406,1.0036936 0 0 1 0.3125856,0.062228 L 12.017215,7.7349967 12.693824,5.676421 a 0.98926432,1.0037649 0 0 1 1.87749,0.6333306 L 13.58212,9.3208335 A 0.98919406,1.0036936 0 0 1 12.330789,9.9561716 L 10.664988,9.3941031 v 0.6122529 c 0,0.04115 -0.01879,0.07628 -0.02374,0.116428 l 4.529521,3.063272 a 0.98931813,1.0038195 0 1 1 -1.098006,1.670148 L 9.0713915,11.473757 7.5925464,14.470786 a 0.98919406,1.0036936 0 0 1 -1.196925,0.503853 L 3.4280394,13.970945 A 0.98919406,1.0036936 0 1 1 4.05321,12.066939 L 6.2076747,12.794617 7.172139,10.836411 A 0.97039939,0.98462341 0 0 1 6.708211,10.006356 V 9.0036662 H 5.3401554 L 4.6259574,10.457015 A 0.9898278,1.0043366 0 1 1 2.8552999,9.5587089 L 3.844494,7.5513217 A 0.98919406,1.0036936 0 0 1 4.7298228,6.9962791 H 7.697405 V 5.9925856 H 6.708211 A 0.98919406,1.0036936 0 0 1 5.7190169,4.9888919 V 1.9778112 A 0.98919406,1.0036936 0 0 1 6.708211,0.97411758 Z m 0,2.00738722 H 9.6757933 v 2.0073871 h 0.9891947 z"
     id="path2"
     style="fill:#fc7f7f;fill-opacity:1;stroke-width:0.996418" />
  <g
     id="layer4"
     transform="matrix(0.97359968,0,0,1.1241258,0.21122206,-0.99300648)">
    <rect
       style="fill:#5fb2ff;fill-opacity:1;stroke-width:0.970364"
       id="rect3"
       width="1.2027329"
       height="14.104784"
       x="7.398633"
       y="0.94760823"
       ry="0.48045492" />
  </g>
</svg>
